<?xml version="1.0" encoding="utf-8"?>
<!-- Designed by Vexels.com - 2020 All Rights Reserved - https://vexels.com/terms-and-conditions/  -->
<svg version="1.1" id="Layer_1" xmlns="http://www.w3.org/2000/svg" xmlns:xlink="http://www.w3.org/1999/xlink" x="0px" y="0px"
	 viewBox="0 0 1200 1200" enable-background="new 0 0 1200 1200" xml:space="preserve">
<g>
	<path fill="#E09365" d="M1079.69,326.184c-21.24-79.171-71.006-146.248-147.045-196.969
		c-77.729-51.849-154.386-68.177-157.612-68.847l-0.022,0.106c-0.476-0.118-0.937-0.269-1.435-0.333
		c-7.902-1.014-15.572-2.26-23.693-3.576C730.003,53.336,709.446,50,684.413,50c-0.254,0-0.491,0.06-0.741,0.075
		c-0.25-0.015-0.487-0.075-0.741-0.075c-24.507,0-47.009,3.608-66.862,6.792c-7.818,1.254-15.205,2.439-22.301,3.349
		c-0.498,0.064-0.959,0.215-1.435,0.333l-0.021-0.106c-3.226,0.67-79.883,16.997-157.612,68.847
		c-103.895,69.302-158.812,169.109-158.812,288.633c0,91.775,17.67,138.501,38.001,161.915c1.567,2.022,3.321,3.857,5.262,5.509
		c5.826,5.517,11.759,9.357,17.469,11.947c7.564,3.43,15.489,5.125,23.624,5.125c17.838,0,36.676-8.154,54.848-24.062
		c8.104-7.095,15.885-15.574,23.161-25.185l50.779,40.74c-3.826,4.723-24.859,16.89-86.96,27.116
		c-44.561,7.341-94.24,10.521-115.561,7.432c-9.447-1.378-20.168,0.088-31.331,3.872c-18.072-10.019-29.629-25.2-35.08-46.397
		c-15.409-59.91,24.647-150.862,39.476-171.561c10.988-15.336,9.521-32.749-3.735-44.357c-16.081-14.076-47.18-16.361-69.229,4.357
		c-48.526,44.115-75.726,135.966-63.271,213.651c7.504,46.81,28.652,81.774,59.926,99.757
		c-31.246,41.494-41.743,92.393-28.636,141.881c9.022,34.07-12.72,83.221-28.597,119.11c-8.764,19.81-15.685,35.459-17.001,46.764
		c-3.476,29.863,12.632,117.454,14.481,127.34c1.079,5.78,5.949,10.082,11.816,10.441c25.246,1.548,77.4,4.524,104.88,4.524
		c7.743,0,13.531-0.234,16.2-0.805c16.764-3.597,20.989-32.417,18.633-51.735c-2.934-24.061-15.112-40.963-33.9-48.692
		c1.255-44.328,18.467-73.206,35.181-101.12c0.378-0.632,0.748-1.255,1.125-1.884c0.308,1.055,0.599,2.057,0.841,2.923
		c10.183,36.54,14.028,103.373,14.066,104.045c0.058,1.073,0.255,2.132,0.578,3.159c15.178,47.858,18.222,51.685,28.503,51.685
		h61.809c16.332,0,29.621-16.956,29.621-37.801c0-11.268-4.181-21.567-11.772-29.004c-3.797-3.719-9.706-7.878-18.446-10.442
		c-17.72-46.577,15.849-97.568,27.369-109.298c5.665,2.969,11.062,5.829,16.038,8.467c34.429,18.253,64.162,34.011,83.407,38.055
		c0.65,0.137,1.293,0.168,1.937,0.205c0.53,1.006,1.019,1.96,1.554,2.975c17.859,33.886,36.327,68.924,36.327,102.722
		c0,3.435-0.033,6.957-0.067,10.504c-0.275,29.337-0.513,54.677,13.928,65.177c9.164,6.669,44.448,13.099,76.911,13.095
		c17.968,0,35.078-1.97,46.401-6.961c17.913-7.896,25.74-33.131,18.612-60.002c-5.088-19.177-18.61-39.499-41.887-50.782
		c-2.922-1.416-6.014-2.669-9.246-3.779c-0.013-0.656-0.027-1.302-0.034-2.007c-0.142-14.534,1.031-39.51,2.264-65.768
		c0.123-2.615,0.237-5.14,0.356-7.709c11.212-4.222,24.514-11.888,36.886-19.823c14.968,33.194,29.429,82.247,29.429,95.96
		c0,24.847,6.66,45.083,6.944,45.934c0.845,2.533,2.46,4.737,4.62,6.306c8.056,5.863,29.684,10.095,51.893,10.095
		c15.695,0,31.681-2.116,43.365-7.266c18.272-8.05,29.398-29.901,25.329-49.744c-1.754-8.55-8.427-25.696-33.458-33.775
		c-0.984-0.317-2.054-0.591-3.095-0.88c-0.047-1.043-0.068-2.225-0.074-3.476c-0.068-13.535,2.169-38.703,4.533-65.251
		c6.069-68.162,9.237-111.446,1.93-128.952c35.555-69.584,43.11-152.162,40.643-190.839c1.388-0.556,2.707-1.347,3.876-2.415
		l60.309-55.054c7.117,9.311,14.704,17.553,22.604,24.469c7.839,6.861,15.8,12.189,23.752,16.133
		c4.054,2.402,8.384,4.171,12.97,5.139c6.11,1.799,12.176,2.79,18.126,2.79c8.133,0,16.063-1.694,23.622-5.125
		c26.195-11.883,57.126-49.51,60.428-159.605c0.191-6.359,0.307-12.914,0.307-19.766
		C1091.458,385.801,1087.472,355.188,1079.69,326.184z"/>
	<path fill="none" d="M528.331,639.65c1.313,2.256,2.696,4.422,4.148,6.503C531.031,644.068,529.643,641.906,528.331,639.65z"/>
	<path fill="none" d="M517.791,616.085c1.181,3.493,2.495,6.844,3.875,10.12C520.283,622.933,518.972,619.579,517.791,616.085z"/>
	<path fill="none" d="M532.826,646.653c1.312,1.852,2.684,3.625,4.114,5.325C535.515,650.273,534.134,648.509,532.826,646.653z"/>
	<path fill="none" d="M527.087,637.534c-1.672-3.036-3.204-6.24-4.655-9.537c1.448,3.303,2.984,6.503,4.657,9.54
		C527.088,637.536,527.087,637.535,527.087,637.534z"/>
	<path fill="none" d="M537.736,652.94c1.327,1.525,2.714,2.968,4.143,4.356C540.453,655.904,539.058,654.47,537.736,652.94z"/>
	<path fill="none" d="M548.549,663.049c-1.942-1.429-3.788-2.99-5.565-4.645C544.764,660.055,546.607,661.62,548.549,663.049z"/>
	<path fill="#653A24" d="M918.419,150.544c-30.75-20.509-61.606-35.213-87.167-45.391c0.405,0.43,0.807,0.86,1.208,1.285
		c21.679,23.139,60.444,69.785,78.574,123.745c21.989,49.972,7.436,106.89,23.034,189.264
		c16.134,85.208,88.555,153.221,128.859,24.752c0,0-0.669,30.843-5.356,64.512c4.936-22.161,8.247-51.613,8.247-90.864
		C1065.818,305.719,1016.226,215.785,918.419,150.544z"/>
	<path fill="#653A24" d="M476.83,318.733c0.185,0.614,0.337,1.228,0.517,1.842c-1.557-10.779-3.237-23.578-4.972-39.487
		C471.734,293.767,473.033,306.393,476.83,318.733z"/>
	<path fill="#653A24" d="M360.759,520.608c56.602-0.367,84.708-146.233,87.075-215.08c-0.704-5.294-1.05-10.688-1.124-16.156
		c-1.002-2.943-0.606-3.814-0.048-4.003c0.605-41.406,18.948-87.44,54.346-135.369c11.092-15.017,25.367-31.699,39.56-46.579
		c-26.608,10.301-59.589,25.65-92.319,47.574c-97.358,65.214-146.722,154.995-146.722,266.851c0,33.957,2.476,60.591,6.338,81.512
		C315.921,510.443,331.319,520.799,360.759,520.608z"/>
	<path fill="#653A24" d="M400.045,767.918c62.86,0,83.423-92.106,90.524-144.656l-0.66,0.065
		c-53.202,26.703-176.213,34.92-207.09,30.43c-2.901-0.42-6.328-0.295-10.146,0.368
		C284.295,699.273,340.778,767.918,400.045,767.918z"/>
	<path fill="#653A24" d="M490.61,622.955c-0.193,0.099-0.371,0.201-0.567,0.3l0.533-0.052
		C490.588,623.12,490.599,623.038,490.61,622.955z"/>
	<path fill="#653A24" d="M490.577,623.203l-0.533,0.052c-0.046,0.023-0.088,0.048-0.134,0.071l0.66-0.065
		C490.572,623.241,490.574,623.222,490.577,623.203z"/>
	<g>
		<path fill="#592E18" d="M934.068,419.448c-15.597-82.374-1.044-139.292-23.034-189.264c10.3,30.658,13.964,63.668,3.988,96.091
			c-22.036,72.992-5.339,150.326,26.755,200.219c0.563,0.702,1.038,1.441,1.431,2.217c7.875,11.873,16.622,22.128,25.932,30.278
			c10.681,9.348,31.512,23.729,50.992,14.877c9.321-4.228,27.018-18.372,37.439-65.154c4.687-33.67,5.356-64.512,5.356-64.512
			C1022.623,572.668,950.202,504.655,934.068,419.448z"/>
		<path fill="#592E18" d="M447.834,305.529c-2.367,68.846-30.473,214.712-87.075,215.08c-29.44,0.191-44.838-10.165-52.893-21.248
			c10.028,54.313,29.431,70.008,39.347,74.506c19.478,8.843,40.306-5.529,50.992-14.877c9.256-8.103,17.959-18.283,25.798-30.07
			c0.414-0.858,0.905-1.691,1.527-2.466c0.056-0.07,0.128-0.12,0.185-0.189c31.997-49.903,48.605-127.123,26.587-200.054
			C450.237,319.489,448.773,312.584,447.834,305.529z"/>
		<path fill="#592E18" d="M446.663,285.37c-0.558,0.188-0.954,1.059,0.048,4.003C446.693,288.039,446.643,286.714,446.663,285.37z"
			/>
	</g>
	<g>
		<path fill="#E0E0E0" d="M550.365,686.51c14.077,14.447,41.563,19.445,57.679,19.445c37.911,0,57.971-17.36,82.56-17.36
			s32.033,12.286,67.247,12.286c20.747,0,40.766-12.003,53.762-21.88c0,0-0.202-3.692-0.323-7.906
			c-6.017,2.124-12.412,3.379-19.184,3.726c-0.451,0.048-0.89,0.136-1.354,0.136c-0.722,0-1.396-0.013-2.105-0.017
			c-0.165,0.001-0.324,0.017-0.489,0.017c-0.308,0-0.617-0.025-0.925-0.028c-32.484-0.292-50.276-4.557-65.996-8.347
			c-10.176-2.454-18.965-4.574-30.948-5.492c-12.897-0.985-20.688,1.415-31.484,4.749c-13.173,4.06-29.567,9.118-59.238,9.118
			c-1.223,0-2.382-0.226-3.503-0.546c-3.15,0.346-6.308,0.546-9.465,0.546c-7.26,0-13.875-0.998-19.935-2.821
			c-0.005-0.002-0.011-0.004-0.016-0.006c-6.721-2.024-12.717-5.121-18.099-9.08c0.084,9.219,0.734,16.848,1.807,23.398
			C550.359,686.467,550.362,686.49,550.365,686.51z"/>
		<path fill="#E0E0E0" d="M678.805,1084.984C678.805,1084.983,678.805,1084.984,678.805,1084.984
			c-2.863,4.161-7.064,7.115-12.174,8.858c-3.36,1.146-7.091,1.786-11.043,1.946c-1.317,0.053-2.66,0.053-4.021,0.001
			c-1.361-0.053-2.741-0.158-4.135-0.315c-2.787-0.314-5.629-0.834-8.48-1.555c-1.425-0.36-2.853-0.77-4.278-1.229
			c-5.699-1.836-11.347-4.457-16.588-7.806c-3.931-2.512-7.633-5.433-10.956-8.74c-9.97-9.922-16.53-23.316-15.629-39.541
			c-1.068-30.447-16.025-36.323-46.472-104.633c-3.89-8.727-7.182-17.881-10.045-27.185c-0.378-1.227-0.775-2.448-1.137-3.68
			c-0.051,0.004-0.101,0.003-0.152,0.006c-8.869,0.6-16.764-1.473-20.852-1.102c2.206,5.026,4.492,10.102,6.913,15.28
			c4.674,9.999,10.118,20.328,15.879,31.257c18.414,34.938,39.286,74.537,39.286,114.678c0,3.514-0.033,7.115-0.067,10.746
			c-0.129,13.634-0.365,38.852,3.576,44.315c9.721,5.129,73.631,13.901,97.683,3.293c4.424-1.949,8.248-14.594,4.171-29.968
			C679.953,1088.364,679.462,1086.772,678.805,1084.984z"/>
		<path fill="#E0E0E0" d="M668.595,557.106c2.595-12.143,4.373-25.273,5.269-39.251l-36.425-10.407
			c-15.601-4.457-26.706-17.974-28.316-33.853c-0.13-0.004-0.224-0.007-0.224-0.007C608.9,510.018,636.323,552.406,668.595,557.106z
			"/>
		<path fill="#E0E0E0" d="M675.609,635.718c2.76-0.29,5.689-0.444,8.805-0.454c0.012,0,0.023-0.001,0.035-0.001
			c1.822-0.005,3.731,0.056,5.703,0.166c0.709,0.039,1.366,0.039,2.096,0.095c8.933,0.685,16.492,1.976,23.469,3.464
			c-10.756-12.736-20.025-28.97-27.032-48.88c-0.443-1.259-0.883-2.523-1.307-3.812c-0.931,2.826-1.911,5.575-2.929,8.259
			c-0.011,0.03-0.023,0.059-0.035,0.089c-1.731,4.555-3.569,8.929-5.535,13.08c-5.749,12.141-12.467,22.538-19.876,31.304
			C664.179,637.573,669.538,636.355,675.609,635.718z"/>
		<path fill="#E0E0E0" d="M769.689,483.585c-4.442,11.325-13.988,20.272-26.256,23.617l-42.482,11.586
			c0.925,13.779,2.709,26.726,5.291,38.707C737.437,556.363,765.13,519.066,769.689,483.585z"/>
		<path fill="#E0E0E0" d="M709.464,570.501c2.538,9.023,5.562,17.399,9.045,25.054L709.464,570.501z"/>
		<path fill="#E0E0E0" d="M460.808,880.003c-15.48,13.618-82.096-42.407-124.389-53.019c-4.566,4.399-9.931,10.143-15.183,17.081
			c27.977,4.518,66.847,24.053,116.83,50.55c20.283,10.752,41.018,21.738,57.181,28.749c-9.011-19.446-17.365-39.486-23.398-59.995
			C471.767,865.153,470.709,871.293,460.808,880.003z"/>
		<path fill="#E0E0E0" d="M829.869,1039.603c-0.366-1.785-1.077-3.436-2.055-4.974c-8.932,12.765-30.729,16.663-46.152,14.259
			c-8.86-1.381-22.341-11.549-24.305-20.298c-16.935-75.456-18.904-110.288-23.807-125.526c7.924-6.364,15.055-13.118,21.423-20.03
			c3.597,2.97,21.877,19.153,24.284,43.263c2.501,25.05-0.149,65.474-0.497,79.507c1.461-5.487,6.421-9.531,12.344-9.531
			c0.046,0,0.09,0,0.138,0c0.517,0.005,0.968,0.053,1.478,0.064c-0.051-14.901,2.134-39.489,4.632-67.54
			c2.387-26.808,5.86-65.864,6.117-91.71c-11.695,16.125-25.364,30.791-41.401,42.984c-2.014,1.53-4.338,2.333-6.684,2.528
			c-0.286,0.024-0.571,0.063-0.857,0.068c-0.069,0.001-0.137,0.016-0.206,0.016c-3.871,0-7.693-1.744-10.216-5.062
			c-4.286-5.634-3.19-13.68,2.448-17.965c15.574-11.84,28.655-26.407,39.676-42.511c-48.107,46.019-105.196,58.87-127.034,62.355
			c-0.25,13.625-0.761,28.686-1.423,44.886c16.756-8.633,37.841-23.46,48.314-30.827c2.155-1.515,4.019-2.825,5.521-3.864
			c5.828-4.023,13.811-2.562,17.834,3.268c1.108,1.605,1.761,3.376,2.06,5.18c0.412,2.488,0.076,5.025-0.944,7.315
			c-0.925,2.077-2.374,3.951-4.382,5.337c-1.454,1.002-3.255,2.27-5.337,3.735c-1.802,1.268-3.797,2.669-5.89,4.131
			c14.993,32.017,33.524,89.486,33.524,110.468c0,13.855,2.544,26.174,4.213,32.768c12.127,3.647,47.889,7.107,66.631-1.16
			C825.775,1057.89,831.695,1048.513,829.869,1039.603z"/>
		<path fill="#E0E0E0" d="M335.279,1041.669c-3.706-15.498,7.522-28.484,17.656-36.69c-6.333-44.42,16.199-87.46,33.493-108.28
			c-31.826-15.898-65.513-30.599-79.85-27.983c-2.054,4.657-3.841,9.581-5.24,14.756c-1.463,5.415-3.364,10.619-5.528,15.722
			c0.158,6.255,3.904,19.124,5.802,25.613c0.524,1.782,0.995,3.393,1.375,4.762c10.128,36.34,14.199,96.872,14.871,107.855
			c3.75,11.727,8.321,24.981,11.215,32.279h53.684c1.706-1.122,4.35-6.133,4.425-11.941
			C372.065,1059.943,340.144,1062.012,335.279,1041.669z"/>
		<path fill="#E0E0E0" d="M244.407,1071.849c-6.953,7.358-23.258,13.69-50.721,6.742c-23.234-5.878-31.819-29.169-34.99-45.811
			c-1.893-9.93-1.857-17.483-1.857-17.566c0,0,0-0.01,0-0.01l-0.001,0c-6.644,14.427-11.361,21.53-20.164,24.558
			c0.468,4.037,0.985,8.167,1.535,12.348c2.668,20.259,6.125,41.423,8.723,56.147c42.391,2.483,86.708,4.394,100.655,3.877
			c2.587-7.069,4.797-25.519-2.662-39.461C244.768,1072.377,244.571,1072.134,244.407,1071.849z"/>
	</g>
	<g>
		<path fill="#BA694C" d="M548.549,663.049c-1.942-1.429-3.785-2.994-5.565-4.645c-0.38-0.354-0.732-0.745-1.104-1.108
			c-1.429-1.387-2.817-2.83-4.143-4.356c-0.271-0.313-0.529-0.643-0.796-0.962c-1.43-1.7-2.802-3.473-4.114-5.325
			c-0.116-0.165-0.231-0.333-0.347-0.499c-1.452-2.081-2.835-4.248-4.148-6.503l0,0l-0.059-0.026c0,0-0.456-0.748-1.183-2.087
			c-1.673-3.038-3.209-6.237-4.657-9.54c-0.26-0.592-0.512-1.191-0.766-1.791c-1.38-3.277-2.694-6.627-3.875-10.12
			c-1.218-0.465-2.394-1.097-3.466-1.957l-5.483-4.399c-4.162,4.832-10.419,9.231-18.233,13.226
			c-0.011,0.083-0.022,0.164-0.033,0.247c-0.003,0.02-0.005,0.039-0.008,0.059l1.042-0.102c0,0,40.588,55.657,58.754,63.351
			c-0.003-0.02-0.006-0.042-0.009-0.062C549.283,679.897,548.633,672.267,548.549,663.049z"/>
		<path fill="#BA694C" d="M490.234,763.717c1.587,2.736,2.196,6.047,1.41,9.367c-6.013,25.416-4.163,50.544,2.975,77.021
			c0.999,3.256,2.156,7.147,3.397,11.408c3.974,12.437,8.999,25.221,14.825,38.495c4.088-0.372,11.984,1.701,20.852,1.102
			c-12.408-35.512-22.465-71.297-23.809-97.137C508.968,786.325,504.628,770.549,490.234,763.717z"/>
		<path fill="#BA694C" d="M811.478,671.029c-0.062,0.022-0.125,0.043-0.187,0.065c0.121,4.214,0.323,7.906,0.323,7.906
			s13.047-10.974,13.271-6.372c0.224,4.602,3.429,4.146,4.141,2.622c0.491-1.051,4.724-12.895,7.303-20.144
			C828.964,662.421,820.669,667.752,811.478,671.029z"/>
		<path fill="#BA694C" d="M834.165,689.702c2.3-13.311,3.859-25.932,4.804-37.313c-0.046,0.05-0.089,0.105-0.135,0.154
			C837.6,661.811,835.875,675.167,834.165,689.702z"/>
		<path fill="#BA694C" d="M915.203,532.283c-17.001-28.943-29.548-64.817-34.129-103.843c-1.19-0.184-2.386-0.233-3.596,0.016
			c7.327,37.513,3.103,55.236-0.543,62.904c0.703,1.586,1.109,3.331,1.109,5.177c0,28.08-1.915,53.057-5.633,74.809L915.203,532.283
			z"/>
		<path fill="#BA694C" d="M508.609,576.67c-3.46-22.775-4.653-46.929-4.912-69.505c-0.033-2.847-0.053-5.667-0.059-8.457
			l-1.009-2.172c0,0-24.411-20.535-13.402-76.897c-0.694-0.143-1.38-0.154-2.064-0.129c-3.578,42.2-16.567,81.109-34.665,112.143
			l55.558,44.574L508.609,576.67z"/>
		<path fill="#BA694C" d="M427.511,837.359c-23.84-7.425-57.74-20.671-74.231-27.25c-0.834,2.582-2.444,4.935-4.846,6.601
			c-0.125,0.087-5.169,3.677-12.016,10.274c42.293,10.612,108.909,66.637,124.389,53.019c9.901-8.71,10.959-14.85,11.041-16.634
			c-3.761-12.788-6.587-25.757-8.095-38.879C456.281,833.999,444.446,842.634,427.511,837.359z"/>
		<path fill="#BA694C" d="M149.483,959.074c-7.259,16.409-14.116,31.908-14.982,39.353c-0.973,8.357,0.151,23.889,2.173,41.335
			c8.803-3.028,13.52-10.131,20.164-24.558c0,0,2.523-49.644,25.492-100.39c12.279-27.128,6.748-56.061-0.829-80.465
			C186.591,875.009,165.394,923.103,149.483,959.074z"/>
		<path fill="#BA694C" d="M238.949,389.232c-2.219-1.941-5.543-3.365-9.409-4.017c-21.755,22.865-66.384,80.586-60.564,164.763
			c4.768,68.959,26.634,96.784,42.384,107.958c5.619-4.724,11.384-8.983,17.204-12.688c-16.389-13.108-27.592-30.821-33.297-53
			c-18.765-72.957,28.964-172.64,43.464-192.882C243.277,393.022,240.566,390.651,238.949,389.232z"/>
	</g>
	<path fill="#1F1B1B" d="M593.516,369.928c0-21.281-17.252-38.533-38.533-38.533c-21.281,0-38.533,17.252-38.533,38.533
		s17.252,38.533,38.533,38.533C576.263,408.461,593.516,391.209,593.516,369.928z M542.769,357.715
		c0-6.745,5.468-12.213,12.213-12.213s12.213,5.468,12.213,12.213c0,6.745-5.468,12.213-12.213,12.213
		S542.769,364.46,542.769,357.715z"/>
	<path fill="#1F1B1B" d="M826.691,331.395c-21.281,0-38.533,17.252-38.533,38.533s17.252,38.533,38.533,38.533
		s38.533-17.252,38.533-38.533S847.972,331.395,826.691,331.395z M824.419,369.928c-6.745,0-12.213-5.468-12.213-12.213
		c0-6.745,5.468-12.213,12.213-12.213c6.745,0,12.213,5.468,12.213,12.213C836.632,364.46,831.164,369.928,824.419,369.928z"/>
	<path fill="#1F1B1B" d="M1079.69,326.184c-21.24-79.171-71.006-146.248-147.045-196.969
		c-77.729-51.849-154.386-68.177-157.612-68.847l-0.022,0.106c-0.476-0.118-0.937-0.269-1.435-0.333
		c-7.902-1.014-15.572-2.26-23.693-3.576C730.003,53.336,709.446,50,684.413,50c-0.254,0-0.491,0.06-0.741,0.075
		c-0.25-0.015-0.487-0.075-0.741-0.075c-24.507,0-47.009,3.608-66.862,6.792c-7.818,1.254-15.205,2.439-22.301,3.349
		c-0.498,0.064-0.959,0.215-1.435,0.333l-0.021-0.106c-3.226,0.67-79.883,16.997-157.612,68.847
		c-103.895,69.302-158.812,169.109-158.812,288.633c0,91.775,17.67,138.501,38.001,161.915c1.738,2.002,3.494,3.835,5.262,5.509
		c5.826,5.517,11.759,9.357,17.469,11.947c7.564,3.43,15.489,5.125,23.624,5.125c17.838,0,36.676-8.154,54.848-24.062
		c8.104-7.095,15.885-15.574,23.161-25.185l50.779,40.74c-3.826,4.723-24.859,16.89-86.96,27.116
		c-44.561,7.341-94.24,10.521-115.561,7.432c-9.447-1.378-20.168,0.088-31.331,3.872c-18.072-10.019-29.629-25.2-35.08-46.397
		c-15.409-59.91,24.647-150.862,39.476-171.561c10.988-15.336,9.521-32.749-3.735-44.357c-16.081-14.076-47.18-16.361-69.229,4.357
		c-48.526,44.115-75.726,135.966-63.271,213.651c7.504,46.81,28.652,81.774,59.926,99.757
		c-31.246,41.494-41.743,92.393-28.636,141.881c9.022,34.07-12.72,83.221-28.597,119.11c-8.764,19.81-15.685,35.459-17.001,46.764
		c-3.476,29.863,12.632,117.454,14.481,127.34c1.079,5.78,5.949,10.082,11.816,10.441c25.246,1.548,77.4,4.524,104.88,4.524
		c7.743,0,13.531-0.234,16.2-0.805c16.764-3.597,20.989-32.417,18.633-51.735c-2.934-24.061-15.112-40.963-33.9-48.692
		c1.255-44.328,18.467-73.206,35.181-101.12c0.378-0.632,0.748-1.255,1.125-1.884c0.308,1.055,0.599,2.057,0.841,2.923
		c10.183,36.54,14.028,103.373,14.066,104.045c0.058,1.073,0.255,2.132,0.578,3.159c15.178,47.858,18.222,51.685,28.503,51.685
		h61.809c16.332,0,29.621-16.956,29.621-37.801c0-11.268-4.181-21.567-11.772-29.004c-3.797-3.719-9.706-7.878-18.446-10.442
		c-17.72-46.577,15.849-97.568,27.369-109.298c5.665,2.969,11.062,5.829,16.038,8.467c34.429,18.253,64.162,34.011,83.407,38.055
		c0.65,0.137,1.293,0.168,1.937,0.205c0.53,1.006,1.019,1.96,1.554,2.975c17.859,33.886,36.327,68.924,36.327,102.722
		c0,3.435-0.033,6.957-0.067,10.504c-0.275,29.337-0.513,54.677,13.928,65.177c9.164,6.669,44.448,13.099,76.911,13.095
		c17.968,0,35.078-1.97,46.401-6.961c17.913-7.896,25.74-33.131,18.612-60.002c-5.088-19.177-18.61-39.499-41.887-50.782
		c-2.922-1.416-6.014-2.669-9.246-3.779c-0.013-0.656-0.027-1.302-0.034-2.007c-0.142-14.534,1.031-39.51,2.264-65.768
		c0.123-2.615,0.237-5.14,0.356-7.709c11.212-4.222,24.514-11.888,36.886-19.823c14.968,33.194,29.429,82.247,29.429,95.96
		c0,24.847,6.66,45.083,6.944,45.934c0.845,2.533,2.46,4.737,4.62,6.306c8.056,5.863,29.684,10.095,51.893,10.095
		c15.695,0,31.681-2.116,43.365-7.266c18.272-8.05,29.398-29.901,25.329-49.744c-1.754-8.55-8.427-25.696-33.458-33.775
		c-0.984-0.317-2.054-0.591-3.095-0.88c-0.047-1.043-0.068-2.225-0.074-3.476c-0.068-13.535,2.169-38.703,4.533-65.251
		c6.069-68.162,9.237-111.446,1.93-128.952c35.555-69.584,43.11-152.162,40.643-190.839c1.388-0.556,2.707-1.347,3.876-2.415
		l60.309-55.054c7.117,9.311,14.704,17.553,22.604,24.469c7.839,6.861,15.8,12.189,23.752,16.133
		c4.335,2.15,8.663,3.871,12.97,5.139c6.11,1.799,12.176,2.79,18.126,2.79c8.133,0,16.063-1.694,23.622-5.125
		c26.195-11.883,57.126-49.51,60.428-159.605c0.191-6.359,0.307-12.914,0.307-19.766
		C1091.458,385.801,1087.472,355.188,1079.69,326.184z M425.717,526.263c-0.058,0.069-0.129,0.118-0.185,0.189
		c-0.622,0.775-1.113,1.608-1.527,2.466c-7.84,11.787-16.542,21.967-25.798,30.07c-10.685,9.348-31.514,23.72-50.992,14.877
		c-9.916-4.498-29.32-20.193-39.347-74.506c-3.863-20.921-6.338-47.556-6.338-81.512c0-111.855,49.364-201.637,146.722-266.851
		c32.73-21.924,65.711-37.273,92.319-47.574c-14.193,14.879-28.467,31.562-39.56,46.579
		c-35.398,47.929-53.741,93.963-54.346,135.369c-0.02,1.344,0.03,2.669,0.048,4.003c0.073,5.467,0.419,10.862,1.124,16.156
		c0.939,7.055,2.402,13.961,4.47,20.681C474.321,399.141,457.714,476.361,425.717,526.263z M148.656,583.89
		c-11.019-68.73,13.229-152.46,55.357-190.762c7.848-7.375,17.79-9.218,25.526-7.913c3.866,0.652,7.191,2.076,9.409,4.017
		c1.617,1.419,4.328,3.789-0.219,10.135c-14.5,20.242-62.228,119.924-43.464,192.882c5.705,22.179,16.908,39.892,33.297,53
		c-5.82,3.705-11.584,7.964-17.204,12.688c-3.691,3.103-7.307,6.42-10.835,9.922C173.662,654.791,155.267,625.121,148.656,583.89z
		 M352.935,1004.979c0.661,4.635,1.668,9.282,2.996,13.923c-2.655,2.348-4.363,5.742-4.363,9.567c0,7.082,5.74,12.82,12.82,12.82
		c12.999,0,20.534,4.115,22.397,12.232c0.329,1.437,0.413,2.856,0.396,4.242c-0.075,5.808-2.719,10.819-4.425,11.941h-53.684
		c-2.894-7.299-7.466-20.553-11.215-32.279c-0.672-10.984-4.743-71.515-14.871-107.855c-0.38-1.369-0.851-2.98-1.375-4.762
		c-1.898-6.489-5.644-19.358-5.802-25.613c2.164-5.103,4.065-10.307,5.528-15.722c1.399-5.176,3.186-10.1,5.24-14.756
		c14.336-2.617,48.024,12.085,79.85,27.983C369.134,917.519,346.602,960.558,352.935,1004.979z M834.165,689.702
		c-6.111,35.358-17.607,75.589-37.568,110.794c-3.231,5.698-6.68,11.259-10.368,16.649c-11.02,16.104-24.102,30.672-39.676,42.511
		c-5.638,4.286-6.733,12.332-2.448,17.965c2.523,3.318,6.345,5.062,10.216,5.062c0.069,0,0.137-0.015,0.206-0.016
		c0.286-0.005,0.571-0.044,0.857-0.068c2.347-0.195,4.671-0.998,6.684-2.528c16.038-12.193,29.706-26.86,41.401-42.984
		c-0.257,25.846-3.731,64.902-6.117,91.71c-2.498,28.051-4.683,52.639-4.632,67.54c-0.509-0.011-0.96-0.059-1.478-0.064
		c-0.048,0-0.092,0-0.138,0c-5.923,0-10.883,4.045-12.344,9.531c-0.27,1.014-0.462,2.058-0.473,3.155
		c-0.073,7.078,5.605,12.878,12.686,12.953c18.819,0.196,31.79,4.768,36.839,12.716c0.977,1.538,1.689,3.189,2.055,4.974
		c1.826,8.91-4.094,18.287-10.552,21.133c-18.742,8.267-54.504,4.807-66.631,1.16c-1.669-6.594-4.213-18.913-4.213-32.768
		c0-20.982-18.531-78.451-33.524-110.468c2.092-1.462,4.088-2.863,5.89-4.131c2.082-1.465,3.883-2.733,5.337-3.735
		c2.008-1.387,3.457-3.261,4.382-5.337c1.02-2.289,1.356-4.826,0.944-7.315c-0.299-1.804-0.952-3.575-2.06-5.18
		c-4.023-5.83-12.006-7.291-17.834-3.268c-1.502,1.039-3.366,2.349-5.521,3.864c-10.473,7.367-31.558,22.194-48.314,30.827
		c0.662-16.2,1.173-31.261,1.423-44.886c0.725-39.532-0.692-67.454-6.646-79.145c-3.213-6.31-10.936-8.822-17.244-5.605
		c-6.308,3.213-8.818,10.934-5.605,17.239c7.119,13.976,3.195,97.564,0.849,147.509c-1.211,25.791-2.287,48.731-2.3,64.092
		c-6.071-0.34-12.488-0.232-19.323,0.475c-7.042,0.734-12.161,7.036-11.428,14.076c0.73,7.044,7.04,12.152,14.074,11.43
		c46.408-4.82,62.215,21.747,67.232,35.411c0,0,0,0,0,0c0.657,1.788,1.148,3.381,1.479,4.626
		c4.077,15.374,0.253,28.019-4.171,29.968c-24.052,10.608-87.962,1.836-97.683-3.293c-3.942-5.463-3.706-30.681-3.576-44.315
		c0.033-3.631,0.067-7.232,0.067-10.746c0-40.142-20.872-79.741-39.286-114.678c-5.761-10.93-11.205-21.258-15.879-31.257
		c-2.421-5.178-4.708-10.254-6.913-15.28c-5.826-13.275-10.851-26.059-14.825-38.495c-1.224-3.829-2.381-7.638-3.397-11.408
		c-7.138-26.477-8.988-51.606-2.975-77.021c0.785-3.321,0.176-6.632-1.41-9.367c-1.705-2.94-4.544-5.214-8.113-6.057
		c-6.902-1.653-13.799,2.633-15.428,9.523c-4.58,19.358-5.102,38.485-2.939,57.307c1.508,13.122,4.333,26.091,8.095,38.879
		c6.033,20.509,14.387,40.549,23.398,59.995c-16.163-7.011-36.898-17.997-57.181-28.749c-49.983-26.496-88.853-46.031-116.83-50.55
		c5.252-6.938,10.617-12.682,15.183-17.081c6.847-6.597,11.891-10.187,12.016-10.274c2.403-1.666,4.012-4.019,4.846-6.601
		c1.186-3.673,0.756-7.823-1.612-11.239c-4.038-5.822-12.025-7.265-17.84-3.234c-1.463,1.016-30.169,21.297-47.834,56.686
		c-0.118,0.214-0.208,0.438-0.313,0.659c-2.587,5.249-4.915,10.82-6.886,16.715c-0.779,2.328-1.553,4.661-2.208,7.088
		c-4.081,15.099-12.507,29.17-22.262,45.462c-17.128,28.61-36.4,60.803-38.711,109.595c-0.845-0.002-1.664-0.049-2.522-0.025
		c-7.076,0.225-12.632,6.139-12.411,13.216c0.221,7.078,6.066,12.816,13.216,12.411c14.68-0.398,24.693,4.288,30.509,14.405
		c0.164,0.285,0.361,0.529,0.518,0.823c7.46,13.943,5.25,32.392,2.662,39.461c-13.947,0.517-58.264-1.394-100.655-3.877
		c-2.599-14.724-6.055-35.888-8.723-56.147c-0.55-4.18-1.067-8.31-1.535-12.348c-2.022-17.446-3.146-32.978-2.173-41.335
		c0.866-7.445,7.722-22.944,14.982-39.353c15.911-35.971,37.109-84.065,32.018-124.725c-0.48-3.837-1.109-7.632-2.086-11.32
		c-17.235-65.085,17.066-112.667,32.613-130.107c20.57-23.069,44.237-35.945,60.645-38.797c3.818-0.664,7.245-0.788,10.146-0.368
		c30.876,4.49,153.888-3.728,207.09-30.43c0.046-0.023,0.088-0.048,0.134-0.071c0.195-0.098,0.373-0.201,0.567-0.3
		c7.814-3.995,14.071-8.394,18.233-13.226l5.483,4.399c1.072,0.86,2.247,1.492,3.466,1.957c1.181,3.493,2.492,6.848,3.875,10.12
		c0.252,0.6,0.506,1.199,0.766,1.791c1.451,3.297,2.984,6.501,4.655,9.537c0.001,0.001,0.001,0.002,0.002,0.003
		c0.398,0.724,0.831,1.406,1.242,2.113c1.313,2.255,2.7,4.418,4.148,6.503c0.116,0.166,0.23,0.334,0.347,0.499
		c1.309,1.857,2.689,3.62,4.114,5.325c0.267,0.318,0.524,0.65,0.796,0.962c1.322,1.53,2.718,2.964,4.143,4.356
		c0.373,0.363,0.724,0.756,1.104,1.108c1.777,1.655,3.624,3.216,5.565,4.645c5.382,3.959,11.378,7.057,18.099,9.08
		c0.005,0.002,0.011,0.004,0.016,0.006c6.06,1.823,12.674,2.821,19.935,2.821c3.157,0,6.315-0.2,9.465-0.546
		c1.12,0.32,2.28,0.546,3.503,0.546c29.671,0,46.065-5.058,59.238-9.118c10.796-3.334,18.587-5.734,31.484-4.749
		c11.983,0.918,20.772,3.038,30.948,5.492c15.72,3.791,33.512,8.055,65.996,8.347c0.308,0.003,0.617,0.028,0.925,0.028
		c0.165,0,0.324-0.016,0.489-0.017c0.708,0.004,1.382,0.017,2.105,0.017c0.464,0,0.903-0.088,1.354-0.136
		c6.772-0.347,13.167-1.602,19.184-3.726c0.062-0.022,0.125-0.043,0.187-0.065c9.191-3.277,17.486-8.607,24.851-15.922
		c0.843-0.837,1.687-1.674,2.505-2.563c0.046-0.05,0.089-0.104,0.135-0.154C838.025,663.77,836.466,676.391,834.165,689.702z
		 M659.003,639.029c7.409-8.766,14.127-19.163,19.876-31.304c1.966-4.151,3.804-8.526,5.535-13.08
		c0.011-0.03,0.023-0.059,0.035-0.089c1.019-2.685,1.998-5.433,2.929-8.259c0.425,1.288,0.864,2.553,1.307,3.812
		c7.007,19.91,16.276,36.144,27.032,48.88c-6.977-1.488-14.536-2.779-23.469-3.464c-0.73-0.055-1.387-0.055-2.096-0.095
		c-1.972-0.109-3.882-0.171-5.703-0.166c-0.012,0-0.023,0.001-0.035,0.001c-3.117,0.01-6.045,0.165-8.805,0.454
		C669.538,636.355,664.179,637.573,659.003,639.029z M872.411,571.346c3.718-21.753,5.633-46.729,5.633-74.809
		c0-1.846-0.407-3.591-1.109-5.177c-1.992-4.496-6.477-7.643-11.711-7.643c-1.081,0-2.113,0.174-3.116,0.426
		c-5.565,1.398-9.704,6.395-9.704,12.394c0,29.059-2.524,82.464-19.042,117.804c-4.328,9.26-9.631,17.25-16.09,23.262
		c-0.58,0.54-1.142,1.112-1.741,1.619c-7.446,6.301-16.376,10.006-27.068,10.077c-0.335-0.002-0.666-0.005-0.997-0.008
		c-10-0.104-19.365-2.442-27.979-6.78c-16.871-8.497-30.842-24.686-40.976-46.956c-3.483-7.655-6.507-16.031-9.045-25.054
		c-1.181-4.198-2.259-8.532-3.223-13.005c-2.582-11.981-4.366-24.929-5.291-38.707l42.482-11.586
		c12.268-3.346,21.815-12.293,26.256-23.617c1.757-4.478,2.739-9.317,2.739-14.345v0c0-21.732-19.059-41.642-39.35-49.425
		c-13.323-5.11-31.277-6.901-48.63-6.082c-0.011,0.001-0.023,0.002-0.035,0.002c-13.166,0.624-25.986,2.746-36.165,6.08
		c-20.652,6.764-39.35,27.693-39.35,49.425v0.374c0,1.343,0.091,2.668,0.224,3.982c1.61,15.879,12.714,29.396,28.316,33.853
		l36.425,10.407c-0.896,13.978-2.674,27.108-5.269,39.251c-12.16,56.896-42.108,92.21-81.997,92.21c-3.277,0-6.4-0.39-9.391-1.113
		c-2.061-0.498-4.051-1.174-5.977-2.016c-0.001,0-0.003-0.001-0.004-0.002c-0.636-0.279-1.27-0.565-1.891-0.881
		c-3.042-1.547-5.907-3.548-8.598-6.001c-6.602-6.018-12.149-14.776-16.658-26.296c-0.015-0.037-0.03-0.073-0.044-0.11
		c-1.65-4.229-3.158-8.833-4.529-13.807c-6.842-24.82-10.235-58.907-10.235-102.553c0-7.08-5.74-12.82-12.82-12.82
		c-1.773,0-3.462,0.361-4.998,1.012c-4.596,1.948-7.822,6.501-7.822,11.808c0,0.717,0.007,1.451,0.008,2.172
		c0.006,2.789,0.026,5.61,0.059,8.457c0.259,22.576,1.452,46.73,4.912,69.505l-0.552-0.443l-55.558-44.574
		c18.098-31.033,31.087-69.943,34.665-112.143c2.694-31.773,0.043-65.397-9.817-98.936c-0.18-0.614-0.332-1.228-0.517-1.842
		c-3.797-12.34-5.096-24.966-4.455-37.645c4.629-91.576,111.501-185.945,126.286-195.747c1.552-0.206,3.129-0.441,4.693-0.666
		c5.461-0.786,10.986-1.638,16.776-2.567c19.831-3.18,40.338-6.468,62.802-6.468c0.254,0,1.228,0,1.482,0c0,0,0.001,0,0.001,0
		c0.012,0,0.023,0.001,0.035,0.001c22.951,0.003,42.459,3.168,61.326,6.232c7.933,1.288,16.138,2.617,24.421,3.683
		c0.134,0.03,0.278,0.061,0.486,0.109c0.931,0.494,2.197,1.327,3.624,2.329c28.04,19.714,145.735,134.78,116.19,230.804
		c-11.254,37.279-13.523,74.718-9.423,109.642c4.581,39.026,17.128,74.899,34.129,103.843L872.411,571.346z M1057.571,508.712
		c-10.42,46.781-28.118,60.926-37.439,65.154c-19.48,8.851-40.311-5.529-50.992-14.877c-9.31-8.15-18.057-18.405-25.932-30.278
		c-0.393-0.776-0.868-1.515-1.431-2.217c-32.094-49.893-48.791-127.227-26.755-200.219c9.976-32.423,6.312-65.433-3.988-96.091
		c-18.13-53.96-56.894-100.606-78.574-123.745c-0.401-0.426-0.803-0.855-1.208-1.285c25.561,10.178,56.417,24.882,87.167,45.391
		c97.806,65.241,147.398,155.175,147.398,267.304C1065.818,457.099,1062.507,486.551,1057.571,508.712z"/>
	<path fill="#1F1B1B" d="M532.479,646.154c0.116,0.166,0.23,0.334,0.347,0.499C532.709,646.488,532.595,646.32,532.479,646.154z"/>
	<path fill="#1F1B1B" d="M542.984,658.404c-0.38-0.353-0.731-0.746-1.104-1.108C542.252,657.659,542.604,658.05,542.984,658.404z"/>
	<path fill="#1F1B1B" d="M521.666,626.206c0.253,0.6,0.505,1.2,0.766,1.791C522.172,627.405,521.918,626.806,521.666,626.206z"/>
	<path fill="#1F1B1B" d="M536.94,651.978c0.267,0.319,0.525,0.649,0.796,0.962C537.464,652.628,537.207,652.295,536.94,651.978z"/>
	<path fill="#1F1B1B" d="M528.331,639.65L528.331,639.65c-0.411-0.707-0.844-1.389-1.242-2.113c0.728,1.339,1.183,2.087,1.183,2.087
		L528.331,639.65z"/>
	<g>
		<path fill="#FFFFFF" d="M790.975,1021.913c-7.082-0.075-12.759-5.876-12.686-12.953c0.012-1.097,0.203-2.142,0.473-3.155
			c0.347-14.033,2.998-54.457,0.497-79.507c-2.407-24.11-20.687-40.293-24.284-43.263c-6.368,6.912-13.5,13.665-21.423,20.03
			c4.903,15.238,6.872,50.07,23.807,125.526c1.964,8.749,15.445,18.917,24.305,20.298c15.423,2.404,37.22-1.494,46.152-14.259
			C822.765,1026.681,809.794,1022.109,790.975,1021.913z"/>
		<path fill="#FFFFFF" d="M611.573,1049.573c-7.034,0.722-13.344-4.386-14.074-11.43c-0.732-7.04,4.386-13.342,11.428-14.076
			c6.835-0.707,13.252-0.815,19.323-0.475c0.014-15.361,1.089-38.301,2.3-64.092c2.345-49.944,6.27-133.533-0.849-147.509
			c-3.213-6.306-0.703-14.026,5.605-17.239c6.308-3.218,14.03-0.705,17.244,5.605c5.954,11.691,7.371,39.613,6.646,79.145
			c21.838-3.486,78.927-16.336,127.034-62.355c3.688-5.389,7.137-10.951,10.368-16.649c17.8-52.37,15.722-91.871,15.016-121.496
			c-12.996,9.877-33.015,21.88-53.762,21.88c-35.214,0-42.659-12.286-67.247-12.286s-44.649,17.36-82.56,17.36
			c-16.117,0-43.603-4.998-57.679-19.445c6.393,38.91,27.151,41.326,24.797,134.824c-1.664,66.098-23.381,78.496-41.316,79.77
			c0.362,1.232,0.759,2.453,1.137,3.68c2.863,9.304,6.155,18.458,10.045,27.185c30.447,68.31,45.404,74.186,46.472,104.633
			c-0.901,16.225,5.659,29.62,15.629,39.541c3.323,3.307,7.026,6.228,10.956,8.74c5.241,3.349,10.889,5.97,16.588,7.806
			c1.425,0.459,2.853,0.869,4.278,1.229c2.851,0.72,5.693,1.241,8.48,1.555c1.394,0.157,2.774,0.262,4.135,0.315
			c1.361,0.053,2.703,0.053,4.021-0.001c3.953-0.16,7.684-0.801,11.043-1.946c5.11-1.743,9.311-4.697,12.174-8.858
			C673.787,1071.32,657.981,1044.753,611.573,1049.573z"/>
		<path fill="#FFFFFF" d="M825.879,445.218c-59.297-48.358-106.258-88.605-106.258-165.121c0-84.492,38.781-163.321,54.686-192.104
			c-1.427-1.003-2.693-1.835-3.624-2.329c-0.209-0.047-0.352-0.079-0.486-0.109c-8.283-1.066-16.488-2.395-24.421-3.683
			c-18.539-3.01-37.714-6.102-60.149-6.212v-0.017c0.264,0.001-1.095-0.003-1.095-0.003c-0.254,0-1.346-0.001-1.6-0.001
			c-22.464,0-42.971,3.288-62.802,6.468c-5.79,0.929-11.315,1.781-16.776,2.567c11.667,24.978,45.888,105.863,45.888,195.422
			c0,47.773-46.961,116.763-106.258,165.121c-9.733,7.938-23.02,23.025-31.533,39.512c1.536-0.651,3.225-1.012,4.998-1.012
			c7.08,0,12.82,5.74,12.82,12.82c0,43.646,3.394,77.733,10.235,102.553c1.371,4.974,2.88,9.578,4.529,13.807
			c0.014,0.037,0.029,0.073,0.044,0.11c4.509,11.52,10.055,20.278,16.658,26.296c2.691,2.453,5.556,4.454,8.598,6.001
			c0.622,0.316,1.255,0.603,1.891,0.881c0.001,0.001,0.003,0.001,0.004,0.002c1.926,0.843,3.917,1.518,5.977,2.016
			c2.992,0.723,6.114,1.113,9.391,1.113c39.889,0,69.836-35.314,81.997-92.21c-32.272-4.7-59.695-47.088-59.695-83.518
			c0,0,0.094,0.003,0.224,0.007c-0.133-1.315-0.224-2.639-0.224-3.982v-0.374c0-21.732,18.697-42.661,39.35-49.425
			c10.154-3.326,23.145-5.454,36.278-6.084c17.329-0.81,35.249,0.982,48.552,6.084c20.291,7.783,39.35,27.693,39.35,49.425v0
			c0,5.028-0.983,9.867-2.739,14.345c-4.559,35.482-32.252,72.778-63.447,73.911c0.964,4.473,2.042,8.807,3.223,13.005l9.045,25.054
			c10.134,22.27,24.105,38.459,40.976,46.956c8.614,4.339,17.979,6.676,27.979,6.78c0.331,0.003,0.663,0.005,0.997,0.008
			c10.692-0.071,19.622-3.776,27.068-10.077c0.599-0.507,1.161-1.079,1.741-1.619c6.46-6.012,11.762-14.002,16.09-23.262
			c16.518-35.34,19.042-88.745,19.042-117.804c0-5.999,4.138-10.996,9.704-12.394C851.88,467.933,835.818,453.322,825.879,445.218z"
			/>
		<path fill="#FFFFFF" d="M364.388,1041.289c-7.08,0-12.82-5.738-12.82-12.82c0-3.825,1.708-7.219,4.363-9.567
			c-1.328-4.641-2.336-9.288-2.996-13.923c-10.134,8.206-21.362,21.192-17.656,36.69c4.865,20.343,36.786,18.274,51.902,16.094
			c0.018-1.387-0.066-2.805-0.396-4.242C384.922,1045.404,377.387,1041.289,364.388,1041.289z"/>
		<path fill="#FFFFFF" d="M182.864,958.08c-12.875,26.153-20.193,44.458-26.026,57.122l0.001,0c0,0,0,0.01,0,0.01
			c-0.001,0.083-0.036,7.636,1.857,17.566c3.171,16.642,11.756,39.933,34.99,45.811c27.463,6.948,43.768,0.616,50.721-6.742
			c-5.817-10.118-15.829-14.803-30.509-14.405c-7.151,0.405-12.995-5.333-13.216-12.411c-0.221-7.078,5.335-12.991,12.411-13.216
			c0.859-0.024,1.678,0.023,2.522,0.025c2.31-48.793,21.582-80.985,38.711-109.595c9.755-16.292,18.18-30.364,22.262-45.462
			c0.656-2.426,1.43-4.759,2.208-7.088C251.431,903.743,214.713,893.386,182.864,958.08z"/>
		<path fill="#FFFFFF" d="M824.419,369.928c6.745,0,12.213-5.468,12.213-12.213c0-6.745-5.468-12.213-12.213-12.213
			c-6.745,0-12.213,5.468-12.213,12.213C812.206,364.46,817.674,369.928,824.419,369.928z"/>
		<path fill="#FFFFFF" d="M554.982,369.928c6.745,0,12.213-5.468,12.213-12.213c0-6.745-5.468-12.213-12.213-12.213
			s-12.213,5.468-12.213,12.213C542.769,364.46,548.237,369.928,554.982,369.928z"/>
	</g>
</g>
</svg>
